<svg xmlns="http://www.w3.org/2000/svg" version="1.1" xmlns:xlink="http://www.w3.org/1999/xlink" xmlns:svgjs="http://svgjs.dev/svgjs" width="1440" height="560" preserveAspectRatio="none" viewBox="0 0 1440 560"><g mask="url(&quot;#SvgjsMask1864&quot;)" fill="none"><rect width="1440" height="560" x="0" y="0" fill="url(&quot;#SvgjsLinearGradient1865&quot;)"></rect><g mask="url(&quot;#SvgjsMask1866&quot;)"><path d="M1390.5 256.5L1363.5 229.5L1336.5 229.5L1309.5 229.5L1282.5 229.5M1282.5 283.5L1255.5 256.5L1228.5 256.5L1201.5 256.5L1174.5 256.5M985.5 256.5L958.5 229.5M958.5 256.5L931.5 283.5L904.5 283.5L877.5 256.5M1309.5 283.5L1282.5 256.5M1471.5 256.5L1444.5 256.5L1417.5 256.5L1390.5 256.5L1363.5 256.5L1336.5 256.5L1309.5 283.5L1282.5 283.5L1255.5 283.5L1228.5 283.5L1201.5 283.5L1174.5 283.5L1147.5 283.5L1120.5 256.5L1093.5 256.5L1066.5 256.5L1039.5 256.5L1012.5 256.5L985.5 256.5L958.5 256.5L931.5 256.5L904.5 256.5" stroke="rgba(199, 240, 119, 1)" stroke-width="4.5"></path><path d="M897.75 256.5 a6.75 6.75 0 1 0 13.5 0 a6.75 6.75 0 1 0 -13.5 0zM1275.75 229.5 a6.75 6.75 0 1 0 13.5 0 a6.75 6.75 0 1 0 -13.5 0zM1167.75 256.5 a6.75 6.75 0 1 0 13.5 0 a6.75 6.75 0 1 0 -13.5 0zM951.75 229.5 a6.75 6.75 0 1 0 13.5 0 a6.75 6.75 0 1 0 -13.5 0zM870.75 256.5 a6.75 6.75 0 1 0 13.5 0 a6.75 6.75 0 1 0 -13.5 0zM1275.75 256.5 a6.75 6.75 0 1 0 13.5 0 a6.75 6.75 0 1 0 -13.5 0z" fill="rgba(199, 240, 119, 1)"></path><path d="M1444.5 310.5L1417.5 283.5L1390.5 283.5L1363.5 283.5L1336.5 283.5M1471.5 310.5L1444.5 310.5L1417.5 310.5L1390.5 310.5L1363.5 310.5L1336.5 310.5L1309.5 310.5L1282.5 310.5L1255.5 310.5L1228.5 310.5L1201.5 310.5L1174.5 310.5" stroke="rgba(199, 240, 119, 1)" stroke-width="4.5"></path><path d="M1167.75 310.5 a6.75 6.75 0 1 0 13.5 0 a6.75 6.75 0 1 0 -13.5 0zM1329.75 283.5 a6.75 6.75 0 1 0 13.5 0 a6.75 6.75 0 1 0 -13.5 0z" fill="rgba(199, 240, 119, 1)"></path><path d="M1444.5 229.5L1417.5 229.5L1390.5 229.5M1471.5 229.5L1444.5 229.5L1417.5 202.5L1390.5 202.5L1363.5 202.5L1336.5 202.5L1309.5 202.5L1282.5 202.5L1255.5 202.5L1228.5 202.5L1201.5 202.5" stroke="rgba(255, 0, 0, 1)" stroke-width="4.5"></path><path d="M1194.75 202.5 a6.75 6.75 0 1 0 13.5 0 a6.75 6.75 0 1 0 -13.5 0zM1383.75 229.5 a6.75 6.75 0 1 0 13.5 0 a6.75 6.75 0 1 0 -13.5 0z" fill="rgba(255, 0, 0, 1)"></path><path d="M1012.5 364.5L985.5 391.5L958.5 418.5L931.5 418.5L904.5 418.5M1039.5 364.5L1012.5 337.5L985.5 337.5L958.5 337.5M1201.5 337.5L1174.5 364.5L1147.5 391.5L1120.5 391.5L1093.5 391.5M931.5 364.5L904.5 337.5L877.5 337.5M1120.5 364.5L1093.5 337.5M1471.5 337.5L1444.5 337.5L1417.5 337.5L1390.5 337.5L1363.5 337.5L1336.5 337.5L1309.5 337.5L1282.5 337.5L1255.5 337.5L1228.5 337.5L1201.5 337.5L1174.5 337.5L1147.5 364.5L1120.5 364.5L1093.5 364.5L1066.5 364.5L1039.5 364.5L1012.5 364.5L985.5 364.5L958.5 364.5L931.5 364.5L904.5 364.5L877.5 364.5" stroke="rgba(255, 0, 0, 1)" stroke-width="4.5"></path><path d="M870.75 364.5 a6.75 6.75 0 1 0 13.5 0 a6.75 6.75 0 1 0 -13.5 0zM897.75 418.5 a6.75 6.75 0 1 0 13.5 0 a6.75 6.75 0 1 0 -13.5 0zM951.75 337.5 a6.75 6.75 0 1 0 13.5 0 a6.75 6.75 0 1 0 -13.5 0zM1086.75 391.5 a6.75 6.75 0 1 0 13.5 0 a6.75 6.75 0 1 0 -13.5 0zM870.75 337.5 a6.75 6.75 0 1 0 13.5 0 a6.75 6.75 0 1 0 -13.5 0zM1086.75 337.5 a6.75 6.75 0 1 0 13.5 0 a6.75 6.75 0 1 0 -13.5 0z" fill="rgba(255, 0, 0, 1)"></path><path d="M1228.5 148.5L1201.5 175.5L1174.5 175.5L1147.5 148.5L1120.5 148.5M1255.5 175.5L1228.5 175.5M1309.5 175.5L1282.5 148.5L1255.5 148.5M1471.5 202.5L1444.5 202.5L1417.5 175.5L1390.5 175.5L1363.5 175.5L1336.5 175.5L1309.5 175.5L1282.5 175.5L1255.5 175.5L1228.5 148.5L1201.5 148.5" stroke="rgba(255, 0, 0, 1)" stroke-width="4.5"></path><path d="M1194.75 148.5 a6.75 6.75 0 1 0 13.5 0 a6.75 6.75 0 1 0 -13.5 0zM1113.75 148.5 a6.75 6.75 0 1 0 13.5 0 a6.75 6.75 0 1 0 -13.5 0zM1221.75 175.5 a6.75 6.75 0 1 0 13.5 0 a6.75 6.75 0 1 0 -13.5 0zM1248.75 148.5 a6.75 6.75 0 1 0 13.5 0 a6.75 6.75 0 1 0 -13.5 0z" fill="rgba(255, 0, 0, 1)"></path><path d="M1444.5 364.5L1417.5 391.5L1390.5 391.5L1363.5 391.5L1336.5 391.5M1471.5 364.5L1444.5 364.5L1417.5 364.5L1390.5 364.5L1363.5 364.5L1336.5 364.5" stroke="rgba(199, 240, 119, 1)" stroke-width="4.5"></path><path d="M1329.75 364.5 a6.75 6.75 0 1 0 13.5 0 a6.75 6.75 0 1 0 -13.5 0zM1329.75 391.5 a6.75 6.75 0 1 0 13.5 0 a6.75 6.75 0 1 0 -13.5 0z" fill="rgba(199, 240, 119, 1)"></path><path d="M1390.5 148.5L1363.5 121.5L1336.5 121.5M1255.5 121.5L1228.5 94.5L1201.5 94.5L1174.5 94.5L1147.5 94.5M1417.5 148.5L1390.5 121.5L1363.5 94.5M1471.5 175.5L1444.5 148.5L1417.5 148.5L1390.5 148.5L1363.5 148.5L1336.5 148.5L1309.5 121.5L1282.5 121.5L1255.5 121.5L1228.5 121.5" stroke="rgba(199, 240, 119, 1)" stroke-width="4.5"></path><path d="M1221.75 121.5 a6.75 6.75 0 1 0 13.5 0 a6.75 6.75 0 1 0 -13.5 0zM1329.75 121.5 a6.75 6.75 0 1 0 13.5 0 a6.75 6.75 0 1 0 -13.5 0zM1140.75 94.5 a6.75 6.75 0 1 0 13.5 0 a6.75 6.75 0 1 0 -13.5 0zM1356.75 94.5 a6.75 6.75 0 1 0 13.5 0 a6.75 6.75 0 1 0 -13.5 0z" fill="rgba(199, 240, 119, 1)"></path></g></g><defs><mask id="SvgjsMask1864"><rect width="1440" height="560" fill="#ffffff"></rect></mask><linearGradient x1="15.28%" y1="-39.29%" x2="84.72%" y2="139.29%" gradientUnits="userSpaceOnUse" id="SvgjsLinearGradient1865"><stop stop-color="rgba(24, 0, 158, 1)" offset="0"></stop><stop stop-color="rgba(156, 0, 158, 1)" offset="0.88"></stop><stop stop-color="rgba(156, 0, 158, 1)" offset="1"></stop></linearGradient><mask id="SvgjsMask1866"><rect width="1440" height="560" fill="white"></rect><path d="M901.12 256.5 a3.38 3.38 0 1 0 6.76 0 a3.38 3.38 0 1 0 -6.76 0zM1279.12 229.5 a3.38 3.38 0 1 0 6.76 0 a3.38 3.38 0 1 0 -6.76 0zM1171.12 256.5 a3.38 3.38 0 1 0 6.76 0 a3.38 3.38 0 1 0 -6.76 0zM955.12 229.5 a3.38 3.38 0 1 0 6.76 0 a3.38 3.38 0 1 0 -6.76 0zM874.12 256.5 a3.38 3.38 0 1 0 6.76 0 a3.38 3.38 0 1 0 -6.76 0zM1279.12 256.5 a3.38 3.38 0 1 0 6.76 0 a3.38 3.38 0 1 0 -6.76 0z" fill="black"></path><path d="M1171.12 310.5 a3.38 3.38 0 1 0 6.76 0 a3.38 3.38 0 1 0 -6.76 0zM1333.12 283.5 a3.38 3.38 0 1 0 6.76 0 a3.38 3.38 0 1 0 -6.76 0z" fill="black"></path><path d="M1198.12 202.5 a3.38 3.38 0 1 0 6.76 0 a3.38 3.38 0 1 0 -6.76 0zM1387.12 229.5 a3.38 3.38 0 1 0 6.76 0 a3.38 3.38 0 1 0 -6.76 0z" fill="black"></path><path d="M874.12 364.5 a3.38 3.38 0 1 0 6.76 0 a3.38 3.38 0 1 0 -6.76 0zM901.12 418.5 a3.38 3.38 0 1 0 6.76 0 a3.38 3.38 0 1 0 -6.76 0zM955.12 337.5 a3.38 3.38 0 1 0 6.76 0 a3.38 3.38 0 1 0 -6.76 0zM1090.12 391.5 a3.38 3.38 0 1 0 6.76 0 a3.38 3.38 0 1 0 -6.76 0zM874.12 337.5 a3.38 3.38 0 1 0 6.76 0 a3.38 3.38 0 1 0 -6.76 0zM1090.12 337.5 a3.38 3.38 0 1 0 6.76 0 a3.38 3.38 0 1 0 -6.76 0z" fill="black"></path><path d="M1198.12 148.5 a3.38 3.38 0 1 0 6.76 0 a3.38 3.38 0 1 0 -6.76 0zM1117.12 148.5 a3.38 3.38 0 1 0 6.76 0 a3.38 3.38 0 1 0 -6.76 0zM1225.12 175.5 a3.38 3.38 0 1 0 6.76 0 a3.38 3.38 0 1 0 -6.76 0zM1252.12 148.5 a3.38 3.38 0 1 0 6.76 0 a3.38 3.38 0 1 0 -6.76 0z" fill="black"></path><path d="M1333.12 364.5 a3.38 3.38 0 1 0 6.76 0 a3.38 3.38 0 1 0 -6.76 0zM1333.12 391.5 a3.38 3.38 0 1 0 6.76 0 a3.38 3.38 0 1 0 -6.76 0z" fill="black"></path><path d="M1225.12 121.5 a3.38 3.38 0 1 0 6.76 0 a3.38 3.38 0 1 0 -6.76 0zM1333.12 121.5 a3.38 3.38 0 1 0 6.76 0 a3.38 3.38 0 1 0 -6.76 0zM1144.12 94.5 a3.38 3.38 0 1 0 6.76 0 a3.38 3.38 0 1 0 -6.76 0zM1360.12 94.5 a3.38 3.38 0 1 0 6.76 0 a3.38 3.38 0 1 0 -6.76 0z" fill="black"></path></mask></defs></svg>